<?xml version="1.0" encoding="UTF-8" standalone="no"?>
<!-- Created with Inkscape (http://www.inkscape.org/) -->

<svg
   xmlns:dc="http://purl.org/dc/elements/1.1/"
   xmlns:cc="http://creativecommons.org/ns#"
   xmlns:rdf="http://www.w3.org/1999/02/22-rdf-syntax-ns#"
   xmlns:svg="http://www.w3.org/2000/svg"
   xmlns="http://www.w3.org/2000/svg"
   xmlns:sodipodi="http://sodipodi.sourceforge.net/DTD/sodipodi-0.dtd"
   xmlns:inkscape="http://www.inkscape.org/namespaces/inkscape"
   viewBox="0 0 334.28571 334.28571"
   width="334.28571"
   height="334.28571"
   id="svg2"
   version="1.1"
   inkscape:version="0.48.4 r9939"
   sodipodi:docname="arrow_right.svg">
  <defs
     id="defs4" />
  <sodipodi:namedview
     id="base"
     pagecolor="#ffffff"
     bordercolor="#666666"
     borderopacity="1.0"
     inkscape:pageopacity="0.0"
     inkscape:pageshadow="2"
     inkscape:zoom="0.7"
     inkscape:cx="-296.2292"
     inkscape:cy="10.188935"
     inkscape:document-units="px"
     inkscape:current-layer="layer2"
     showgrid="false"
     objecttolerance="20"
     fit-margin-top="0"
     fit-margin-left="0"
     fit-margin-right="0"
     fit-margin-bottom="0"
     inkscape:window-width="1920"
     inkscape:window-height="1018"
     inkscape:window-x="-8"
     inkscape:window-y="-8"
     inkscape:window-maximized="1" />
  <metadata
     id="metadata7">
    <rdf:RDF>
      <cc:Work
         rdf:about="">
        <dc:format>image/svg+xml</dc:format>
        <dc:type
           rdf:resource="http://purl.org/dc/dcmitype/StillImage" />
        <dc:title />
      </cc:Work>
    </rdf:RDF>
  </metadata>
  <g
     inkscape:groupmode="layer"
     id="layer2"
     inkscape:label="circulo"
     transform="translate(87.142847,10.963608)">
    <path
       sodipodi:type="arc"
       style="fill:#b72c31;fill-opacity:1;stroke:none"
       id="path3765"
       sodipodi:cx="-502.85715"
       sodipodi:cy="236.17924"
       sodipodi:rx="155.71428"
       sodipodi:ry="155.71428"
       d="m -347.14287,236.17924 c 0,85.99863 -69.71566,155.71428 -155.71428,155.71428 -85.99862,0 -155.71428,-69.71565 -155.71428,-155.71428 0,-85.99862 69.71566,-155.714274 155.71428,-155.714274 85.99862,0 155.71428,69.715654 155.71428,155.714274 z"
       transform="matrix(1.0733945,0,0,1.0733945,619.7641,-97.33426)" />
  </g>
  <g
     inkscape:label="Capa 1"
     inkscape:groupmode="layer"
     id="layer1"
     transform="translate(-280.42778,-227.87052)"
     style="display:inline"
     sodipodi:insensitive="true">
    <path
       style="fill:#ffffff;fill-opacity:1;stroke:none"
       d="m 367.57195,516.72234 c 0.24237,11.09831 36.43035,38.71449 45.4375,33.3125 6.96908,-4.17967 79.43033,-77.08836 120.75,-120.4375 4.46266,-3.51204 9.40791,-8.83243 13.75,-14.5625 8.22459,-8.83557 13.66913,-15.00208 14.625,-16.71875 1.98969,-3.57332 -2.84042,-10.50953 -10.0625,-17.34375 C 524.125,350.7624 414.96766,243.87272 406.7282,239.28484 c -9.2555,-5.15364 -41.04337,35.39238 -35.28125,45 3.88446,6.47685 67.20604,69.53478 110.9375,111.59375 -43.08341,42.67451 -110.74353,112.35319 -114.375,118.875 -0.3221,0.57847 -0.45365,1.22886 -0.4375,1.96875 z"
       id="path3769"
       inkscape:connector-curvature="0" />
  </g>
</svg>
