<?xml version="1.0" encoding="UTF-8" standalone="no"?>
<!-- Created with Inkscape (http://www.inkscape.org/) -->

<svg
   xmlns:dc="http://purl.org/dc/elements/1.1/"
   xmlns:cc="http://creativecommons.org/ns#"
   xmlns:rdf="http://www.w3.org/1999/02/22-rdf-syntax-ns#"
   xmlns:svg="http://www.w3.org/2000/svg"
   xmlns="http://www.w3.org/2000/svg"
   xmlns:sodipodi="http://sodipodi.sourceforge.net/DTD/sodipodi-0.dtd"
   xmlns:inkscape="http://www.inkscape.org/namespaces/inkscape"
   width="334.28571"
   height="334.28571"
   id="svg2"
   version="1.1"
   inkscape:version="0.48.4 r9939"
   sodipodi:docname="arrow_up.svg">
  <defs
     id="defs4" />
  <sodipodi:namedview
     id="base"
     pagecolor="#ffffff"
     bordercolor="#666666"
     borderopacity="1.0"
     inkscape:pageopacity="0.0"
     inkscape:pageshadow="2"
     inkscape:zoom="0.7"
     inkscape:cx="-296.2292"
     inkscape:cy="10.188935"
     inkscape:document-units="px"
     inkscape:current-layer="layer2"
     showgrid="false"
     objecttolerance="20"
     fit-margin-top="0"
     fit-margin-left="0"
     fit-margin-right="0"
     fit-margin-bottom="0"
     inkscape:window-width="1920"
     inkscape:window-height="1018"
     inkscape:window-x="-8"
     inkscape:window-y="-8"
     inkscape:window-maximized="1" />
  <metadata
     id="metadata7">
    <rdf:RDF>
      <cc:Work
         rdf:about="">
        <dc:format>image/svg+xml</dc:format>
        <dc:type
           rdf:resource="http://purl.org/dc/dcmitype/StillImage" />
        <dc:title></dc:title>
      </cc:Work>
    </rdf:RDF>
  </metadata>
  <g
     inkscape:groupmode="layer"
     id="layer2"
     inkscape:label="circulo"
     transform="translate(87.142847,10.963608)">
    <path
       sodipodi:type="arc"
       style="fill:#3a82bc;fill-opacity:1;stroke:#000000;stroke-opacity:1;stroke-width:2.79487177999999980;stroke-miterlimit:4;stroke-dasharray:none"
       id="path3765"
       sodipodi:cx="-502.85715"
       sodipodi:cy="236.17924"
       sodipodi:rx="155.71428"
       sodipodi:ry="155.71428"
       d="m -347.14287,236.17924 a 155.71428,155.71428 0 1 1 -311.42856,0 155.71428,155.71428 0 1 1 311.42856,0 z"
       transform="matrix(1.0733945,0,0,1.0733945,619.7641,-97.33426)" />
  </g>
  <g
     inkscape:label="Capa 1"
     inkscape:groupmode="layer"
     id="layer1"
     transform="translate(-280.42778,-227.87052)"
     style="display:inline"
     sodipodi:insensitive="true">
    <path
       style="fill:#ffffff;fill-opacity:1;stroke:none"
       d="m 551.35345,464.57251 c 9.21746,-0.20331 32.15348,-30.55921 27.66697,-38.11477 -3.47133,-5.84593 -64.02406,-66.62929 -100.02674,-101.28986 -2.91685,-3.74345 -7.33559,-7.89172 -12.09457,-11.53404 -7.33819,-6.89911 -12.45965,-11.4662 -13.8854,-12.26802 -2.96774,-1.66903 -8.72846,2.38265 -14.40447,8.44082 -25.09021,23.443 -113.86511,115.00848 -117.67547,121.92006 -4.28025,7.76388 29.39437,34.4288 37.37377,29.59531 5.37921,-3.25844 57.7506,-56.37508 92.68176,-93.05875 35.44239,36.14006 93.3125,92.89604 98.72905,95.94226 0.48043,0.27019 1.0206,0.38054 1.6351,0.36699 z"
       id="path3769"
       inkscape:connector-curvature="0" />
  </g>
</svg>
